<svg xmlns="http://www.w3.org/2000/svg" width="215.989" height="216" viewBox="0 0 215.989 216"><g fill="#fff"><path d="M54.64 92.43l77.224-31.865-14.107-51.065c-3.358-.336-6.571-.502-9.764-.502-34.271 0-65.396 17.186-83.679 46.082l30.326 37.35zM148.431 120.537l-14.958-54.15-74.889 30.904 45.39 55.9zM9.059 111.238l39.796-16.42-27.788-34.224c-7.911 14.488-12.072 30.785-12.072 47.406 0 1.045.019 2.111.064 3.238zM124.213 10.352l29.389 106.385 49.471-36.338c-10.536-36.315-41.683-63.868-78.86-70.047zM206.995 108c0-7.172-.781-14.332-2.324-21.336l-49.36 36.258 16.726 60.545c22.273-18.879 34.958-46.133 34.958-75.467zM166.936 187.52l-16.796-60.799-42.383 31.131 34.837 42.906c8.695-3.244 16.865-7.69 24.342-13.238zM53.24 190.459l45.895-33.715-46.336-57.066-43.318 17.871c2.841 29.461 19.036 56.451 43.759 72.91zM58.734 193.861c14.966 8.611 31.904 13.141 49.259 13.141 9.705 0 19.283-1.412 28.535-4.203l-33.609-41.393-44.185 32.455z"/></g></svg>