<svg xmlns="http://www.w3.org/2000/svg" width="216.001" height="194.4" viewBox="0 0 216.001 194.4"><path d="M144.27 101.037l-35.718 26.308 30.108 37.051c6.572-5.601 12.785-10.918 18.646-16.035l-13.036-47.324zM67.079 76.309l38.317 47.151 37.452-27.584-12.559-45.589zM63.787 72.257l65.164-26.826-7.071-25.668c-6.493 6.041-11.022 12.891-13.879 18.101-3.421-6.232-9.216-14.818-17.929-21.551-9.089-7.043-19.399-10.602-30.649-10.602-14.708 0-27.715 5.65-37.396 15.155l41.76 51.391zM147.159 92.7l62.005-45.669c-6.822-24.479-27.17-41.32-52.585-41.32-11.202 0-21.45 3.524-30.493 10.493l21.073 76.496zM148.581 97.862l12.9 46.828c30.919-27.446 50.152-49.581 50.152-79.257 0-4.533-.431-8.913-1.232-13.104l-61.82 45.533zM104.521 130.312l-36.015 26.526c3.277 2.81 6.621 5.669 10.091 8.628 7.596 6.465 16.192 13.795 25.142 21.627 1.171 1.031 2.696 1.596 4.262 1.596s3.09-.564 4.261-1.596c7.963-6.957 15.638-13.529 22.593-19.454l-30.334-37.327zM58.959 74.244l-40.37-49.68c-8.917 10.525-14.222 24.748-14.222 40.87 0 10.256 2.302 19.598 6.578 28.576l48.014-19.766zM101.365 126.429l-39.113-48.133-48.986 20.165c10.022 18.014 28.004 34.886 51.353 55.033l36.746-27.065z"/></svg>