<svg xmlns="http://www.w3.org/2000/svg" width="216" height="194.4" viewBox="0 0 216 194.4"><g fill="#fff"><path d="M144.27 101.037l-35.719 26.308 30.109 37.051c6.572-5.601 12.785-10.918 18.646-16.035l-13.036-47.324zM67.078 76.309l38.317 47.151 37.453-27.584-12.559-45.589zM63.787 72.257l65.164-26.826-7.072-25.668c-6.492 6.041-11.021 12.891-13.879 18.101-3.42-6.232-9.215-14.818-17.928-21.551-9.09-7.043-19.4-10.602-30.65-10.602-14.707 0-27.715 5.65-37.396 15.155l41.761 51.391zM147.158 92.7l62.006-45.669c-6.822-24.479-27.17-41.32-52.586-41.32-11.201 0-21.449 3.524-30.492 10.493l21.072 76.496zM148.58 97.862l12.9 46.828c30.92-27.446 50.152-49.581 50.152-79.257 0-4.533-.43-8.913-1.232-13.104l-61.82 45.533zM104.521 130.312l-36.016 26.526c3.277 2.81 6.621 5.669 10.092 8.628 7.596 6.465 16.191 13.795 25.141 21.627 1.172 1.031 2.697 1.596 4.262 1.596 1.566 0 3.09-.564 4.262-1.596 7.963-6.957 15.637-13.529 22.592-19.454l-30.333-37.327zM58.959 74.244l-40.371-49.68c-8.916 10.525-14.221 24.748-14.221 40.87 0 10.256 2.301 19.598 6.578 28.576l48.014-19.766zM101.365 126.429l-39.113-48.133-48.986 20.165c10.021 18.014 28.004 34.886 51.352 55.033l36.747-27.065z"/></g></svg>