<svg xmlns="http://www.w3.org/2000/svg" width="216" height="194.4" viewBox="0 0 216 194.4"><path fill="none" d="M131.958 46.896l13.796 50.006-21.785-79.004z"/><path fill="#008FC5" d="M20.303 22.629c-9.95 10.683-15.936 25.674-15.936 42.805 0 11.133 2.706 21.189 7.713 30.873l50.975-21.031-42.752-52.647z"/><path fill="#54B948" d="M63.054 75.275l-50.974 21.032c10.034 19.367 29.295 37.211 54.597 58.965l38.34-28.295-41.963-51.702z"/><path fill="#FDBB30" d="M209.833 49.623c-6.072-25.875-26.951-43.912-53.254-43.912-11.262 0-21.561 3.559-30.639 10.602-.672.51-1.32 1.055-1.971 1.586l21.785 79.004 64.079-47.28z"/><path fill="#00AEEF" d="M131.958 46.896l-7.988-28.998c-7.628 6.455-12.814 14.211-15.969 19.965-3.421-6.232-9.216-14.818-17.929-21.551-9.089-7.042-19.4-10.601-30.65-10.601-15.598 0-29.286 6.35-39.119 16.918l42.751 52.646 68.904-28.379z"/><path fill="#E31B23" d="M105.016 126.977l40.738-30.075-13.796-50.006-68.904 28.379z"/><path fill="#FFD200" d="M159.434 146.504c32.119-28.295 52.199-50.742 52.199-81.07 0-5.518-.629-10.814-1.801-15.811l-64.078 47.279 13.68 49.602z"/><path fill="#8DC63F" d="M66.676 155.271c3.847 3.301 7.81 6.689 11.921 10.195 7.596 6.465 16.192 13.795 25.142 21.627 1.171 1.031 2.696 1.596 4.262 1.596s3.09-.564 4.261-1.596c8.683-7.586 17.034-14.725 24.47-21.053l-31.715-39.064-38.341 28.295z"/><path fill="#F04D3C" d="M105.016 126.977l31.715 39.064.672-.574c7.842-6.68 15.189-12.955 22.031-18.963l-13.68-49.602-40.738 30.075z"/></svg>