<svg xmlns="http://www.w3.org/2000/svg" width="522" height="198" viewBox="0 0 522 198"><g fill="#fff"><path d="M288.842 136.431c1.795 3.332 0 5.126-3.075 5.126h-9.358c-3.331 0-4.102-1.411-5.895-4.615l-15.38-27.685h-14.098v27.174c0 3.204-1.666 5.126-4.872 5.126h-7.433c-3.204 0-4.999-1.922-4.999-5.126v-73.185c0-3.206 1.924-4.999 5.126-4.999h29.608c20.635 0 31.53 9.868 31.53 25.89 0 11.663-6.665 19.61-17.432 23.072l16.278 29.222zm-47.806-39.478h18.2c7.948 0 13.072-4.742 13.072-12.047 0-7.435-5.125-12.305-13.072-12.305h-18.2v24.352zM331.264 130.278c4.999 0 10.639-1.411 16.278-5.769 2.306-1.793 4.102-2.179 6.15 0l3.079 3.076c2.436 2.435 1.409 4.358 0 5.896-6.537 6.663-17.947 9.74-27.044 9.74-19.228 0-34.862-13.202-34.862-33.708 0-19.354 14.226-33.71 33.578-33.71 9.744 0 17.947 3.461 23.458 8.972 6.022 5.896 9.354 14.357 9.354 23.327 0 3.589-1.409 5.255-5.256 5.255h-44.345c1.026 10.897 9.741 16.921 19.61 16.921zm-19.482-27.429h32.809c-.64-3.973-2.174-7.305-4.613-9.74-2.821-3.076-6.923-4.742-11.79-4.742-8.843 0-15.126 5.639-16.406 14.482zM436.872 54.914v81.645c0 3.076-1.795 4.998-4.87 4.998h-5.128c-3.075 0-4.742-1.922-4.742-4.998v-2.692c-5.128 5.64-12.433 9.356-21.405 9.356-18.841 0-32.298-14.867-32.298-33.708 0-18.97 13.457-33.71 32.298-33.71 7.306 0 13.842 2.435 19.099 6.281v-25.634c0-2.947 1.667-4.23 4.742-4.999l7.177-1.282c3.461-.641 5.127 1.41 5.127 4.743zm-16.02 54.601c0-12.176-7.949-18.97-17.687-18.97-10.767 0-17.818 8.46-17.818 18.97s7.051 18.841 17.818 18.841c9.737-.001 17.687-6.794 17.687-18.841zM513 54.914v81.645c0 3.076-1.792 4.998-4.871 4.998h-5.124c-3.079 0-4.745-1.922-4.745-4.998v-2.692c-5.124 5.64-12.433 9.356-21.402 9.356-18.841 0-32.301-14.867-32.301-33.708 0-18.97 13.459-33.71 32.301-33.71 7.306 0 13.842 2.435 19.095 6.281v-25.634c0-2.947 1.667-4.23 4.742-4.999l7.18-1.282c3.462-.641 5.125 1.41 5.125 4.743zm-16.02 54.601c0-12.176-7.946-18.97-17.688-18.97-10.767 0-17.818 8.46-17.818 18.97s7.052 18.841 17.818 18.841c9.742-.001 17.688-6.794 17.688-18.841z"/></g><path fill="#00AEEF" d="M110.643 8.806c-3.54-.419-7.135-.659-10.79-.659-33.004 0-61.893 17.6-77.806 43.927l29.463 36.286 72.812-30.046-13.679-49.508z"/><path fill="#E31B23" d="M124.321 58.314l-72.811 30.046 44.294 54.552 43.135-31.683z"/><path fill="#008FC5" d="M22.048 52.073c-8.279 13.698-13.048 29.754-13.048 46.927 0 2.285.113 4.541.278 6.784l42.232-17.424-29.462-36.287z"/><path fill="#FDBB30" d="M187.614 75.475c-9.466-35.402-39.771-62.265-76.971-66.669l28.296 102.424 48.675-35.755z"/><path fill="#54B948" d="M51.51 88.36l-42.232 17.424c2.176 29.421 18.348 54.931 41.897 69.912l44.628-32.784-44.293-54.552z"/><path fill="#8DC63F" d="M51.175 175.696c14.072 8.952 30.765 14.157 48.678 14.157 10.497 0 20.566-1.798 29.943-5.074l-33.993-41.867-44.628 32.784z"/><path fill="#F04D3C" d="M138.849 111.295l-43.045 31.617 33.993 41.867c9.295-3.244 17.894-7.954 25.534-13.855l-16.482-59.629z"/><path fill="#FFD200" d="M138.848 111.287l16.488 59.654c21.54-16.695 35.373-42.696 35.373-71.941 0-8.141-1.086-16.022-3.095-23.525l-48.766 35.812z"/></svg>