<svg xmlns="http://www.w3.org/2000/svg" width="849.6" height="122.4" viewBox="0 0 849.6 122.4"><g fill="#fff"><path d="M428.217 75.384v-25.669h-8.65c-.841 0-1.355-.468-1.355-1.31v-.701c0-.842.515-1.309 1.355-1.309h21.088c.889 0 1.402.467 1.402 1.309v.701c0 .842-.514 1.31-1.402 1.31h-8.649v25.669c0 .842-.421 1.403-1.264 1.403h-1.215c-.842 0-1.31-.561-1.31-1.403zM467.164 62.573v12.858c0 .794-.468 1.355-1.263 1.355h-1.169c-.794 0-1.263-.562-1.263-1.355v-12.531c0-4.115-2.524-6.78-6.499-6.78-4.021 0-6.873 2.665-6.873 6.78v12.531c0 .794-.468 1.355-1.263 1.355h-1.169c-.794 0-1.262-.562-1.262-1.355v-30.391c0-.703.42-1.124 1.262-1.357l.981-.234c1.028-.279 1.45.281 1.45 1.264v11.407c1.683-2.058 4.255-3.273 7.527-3.273 5.894 0 9.541 4.021 9.541 9.726zM484.834 74.122c2.059 0 4.676-.562 7.2-2.666.844-.7 1.45-.607 2.012 0l.468.422c.701.747.374 1.402-.094 1.87-2.806 2.712-6.78 3.6-9.586 3.6-6.405 0-12.391-4.441-12.391-12.156 0-7.061 5.051-12.345 11.784-12.345 3.319 0 6.125 1.17 8.135 3.133 2.292 2.245 3.508 5.331 3.508 8.65 0 .888-.655 1.497-1.591 1.497h-18.048c.421 5.142 4.349 7.995 8.603 7.995zm-8.556-11.082h15.804c-.281-1.917-1.029-3.553-2.151-4.675-1.355-1.497-3.319-2.291-5.703-2.291-4.256 0-7.342 2.711-7.95 6.966zM510.922 73.606c-.468-.606-.749-1.308.093-1.963l.327-.326c.655-.562 1.263-.749 2.012.046 1.542 1.73 3.599 2.759 5.937 2.759 2.853 0 4.817-1.311 4.817-3.366 0-2.666-2.619-3.601-5.564-4.816-3.32-1.356-6.64-2.805-6.64-6.593 0-3.929 3.133-6.5 7.902-6.5 2.524 0 5.097.843 7.106 2.993.562.561.842 1.216.095 2.01l-.327.328c-.516.515-1.217.842-2.012.094-1.73-1.684-2.992-2.244-4.956-2.244-2.479 0-4.068 1.216-4.068 2.992 0 1.87 1.87 2.759 4.442 3.881 4.021 1.729 7.762 3.086 7.762 7.808 0 4.021-3.366 6.64-8.37 6.64-2.993-.001-6.453-1.262-8.556-3.743zM531.633 65.098c0-6.92 5.283-12.251 12.438-12.251 7.152 0 12.437 5.331 12.437 12.251s-5.284 12.25-12.437 12.25c-7.155 0-12.438-5.33-12.438-12.25zm21.134 0c0-5.144-3.6-8.931-8.695-8.931-5.051 0-8.698 3.787-8.698 8.931 0 5.143 3.602 8.931 8.698 8.931 5.095-.001 8.695-3.789 8.695-8.931zM560.386 65.098c0-6.92 5.237-12.251 12.438-12.251 2.853 0 6.172.655 9.071 3.508.468.468.795 1.168.093 1.87l-.514.514c-.608.516-1.215.749-2.011 0-2.713-2.432-4.91-2.571-6.593-2.571-5.143 0-8.744 3.787-8.744 8.978 0 5.05 3.414 8.884 8.744 8.884 1.683 0 3.88-.14 6.593-2.572.796-.748 1.402-.56 2.011 0l.514.515c.702.701.375 1.356-.093 1.87-2.899 2.853-6.219 3.507-9.071 3.507-7.201-.002-12.438-5.332-12.438-12.252zM586.476 45.974c0-1.589 1.309-2.898 2.898-2.898 1.589 0 2.899 1.31 2.899 2.898 0 1.638-1.311 2.898-2.899 2.898-1.59 0-2.898-1.261-2.898-2.898zm1.028 29.458v-20.902c0-.841.467-1.355 1.262-1.355h1.169c.795 0 1.263.515 1.263 1.355v20.901c0 .794-.468 1.355-1.263 1.355h-1.169c-.795.001-1.262-.56-1.262-1.354zM617.334 62.433v12.999c0 .888-.375 1.355-1.216 1.355h-.936c-.841 0-1.262-.562-1.262-1.355v-1.732c-1.965 2.293-4.91 3.647-8.043 3.647-5.424 0-9.07-3.038-9.07-7.621 0-4.676 3.974-7.808 9.912-7.808 2.76 0 5.097.747 7.061 1.683v-1.871c0-3.413-2.572-5.656-6.406-5.656-2.197 0-4.769.7-7.061 2.431-.748.562-1.309.28-1.776-.327l-.28-.374c-.608-.795-.28-1.59.374-2.058 3.272-2.291 5.938-2.899 8.931-2.899 6.171 0 9.772 3.415 9.772 9.586zm-3.507 5.843v-1.495c-1.496-.748-4.115-1.824-6.968-1.824-3.833 0-6.357 1.964-6.357 4.816 0 2.666 2.337 4.395 5.796 4.395 3.741 0 7.529-2.243 7.529-5.892zM624.438 75.432v-30.392c0-.703.421-1.124 1.263-1.357l.982-.234c1.028-.279 1.449.281 1.449 1.264v30.72c0 .794-.468 1.355-1.263 1.355h-1.169c-.795-.001-1.262-.562-1.262-1.356zM645.289 65.098c0-6.92 5.236-12.251 12.437-12.251 2.853 0 6.174.655 9.071 3.508.468.468.795 1.168.095 1.87l-.516.514c-.606.516-1.216.749-2.01 0-2.712-2.432-4.909-2.571-6.593-2.571-5.145 0-8.743 3.787-8.743 8.978 0 5.05 3.413 8.884 8.743 8.884 1.684 0 3.881-.14 6.593-2.572.794-.748 1.403-.56 2.01 0l.516.515c.7.701.373 1.356-.095 1.87-2.897 2.853-6.219 3.507-9.071 3.507-7.201-.002-12.437-5.332-12.437-12.252zM692.139 54.53v20.901c0 .794-.469 1.355-1.264 1.355h-.934c-.796 0-1.264-.562-1.264-1.355v-1.497c-1.59 2.104-4.067 3.413-7.435 3.413-5.563 0-9.257-3.88-9.257-9.678v-13.139c0-.841.467-1.355 1.261-1.355h1.216c.795 0 1.217.515 1.217 1.355v13.046c0 3.88 2.478 6.499 6.218 6.499 3.976 0 6.546-2.666 6.546-6.78v-12.765c0-.841.422-1.355 1.216-1.355h1.216c.795 0 1.264.514 1.264 1.355zM712.101 54.812l-.187.748c-.281.935-.982 1.028-1.685.841-.561-.187-1.074-.28-1.636-.28-3.46 0-5.517 3.086-5.517 7.294v12.018c0 .794-.422 1.355-1.263 1.355h-1.169c-.795 0-1.263-.562-1.263-1.355v-20.903c0-.841.468-1.355 1.263-1.355h.935c.795 0 1.263.515 1.263 1.355v1.964c1.263-2.244 3.272-3.647 6.079-3.647 1.074 0 1.589.095 2.384.281.655.186 1.122.561.796 1.684zM728.651 54.812l-.188.748c-.281.935-.981 1.028-1.683.841-.562-.187-1.076-.28-1.637-.28-3.46 0-5.518 3.086-5.518 7.294v12.018c0 .794-.421 1.355-1.262 1.355h-1.17c-.795 0-1.262-.562-1.262-1.355v-20.903c0-.841.467-1.355 1.262-1.355h.936c.795 0 1.262.515 1.262 1.355v1.964c1.263-2.244 3.273-3.647 6.079-3.647 1.075 0 1.589.095 2.385.281.655.186 1.124.561.796 1.684zM742.116 74.122c2.057 0 4.675-.562 7.2-2.666.841-.7 1.45-.607 2.011 0l.468.422c.701.747.373 1.402-.095 1.87-2.805 2.712-6.778 3.6-9.584 3.6-6.406 0-12.391-4.441-12.391-12.156 0-7.061 5.049-12.345 11.781-12.345 3.32 0 6.126 1.17 8.138 3.133 2.29 2.245 3.505 5.331 3.505 8.65 0 .888-.653 1.497-1.589 1.497h-18.049c.422 5.142 4.349 7.995 8.605 7.995zm-8.557-11.082h15.804c-.279-1.917-1.027-3.553-2.149-4.675-1.356-1.497-3.319-2.291-5.706-2.291-4.255 0-7.341 2.711-7.949 6.966zM779.285 62.573v12.858c0 .794-.42 1.355-1.264 1.355h-1.168c-.795 0-1.263-.562-1.263-1.355v-12.531c0-4.115-2.524-6.78-6.499-6.78-4.021 0-6.873 2.665-6.873 6.78v12.531c0 .794-.421 1.355-1.263 1.355h-1.169c-.795 0-1.263-.562-1.263-1.355v-20.901c0-.841.468-1.355 1.263-1.355h.936c.794 0 1.262.515 1.262 1.355v1.917c1.637-2.244 4.302-3.601 7.762-3.601 5.892.001 9.539 4.022 9.539 9.727zM784.566 65.098c0-6.92 5.237-12.251 12.438-12.251 2.853 0 6.172.655 9.07 3.508.469.468.796 1.168.094 1.87l-.514.514c-.608.516-1.216.749-2.011 0-2.713-2.432-4.91-2.571-6.593-2.571-5.143 0-8.745 3.787-8.745 8.978 0 5.05 3.415 8.884 8.745 8.884 1.683 0 3.88-.14 6.593-2.572.795-.748 1.402-.56 2.011 0l.514.515c.702.701.375 1.356-.094 1.87-2.898 2.853-6.218 3.507-9.07 3.507-7.2-.002-12.438-5.332-12.438-12.252zM830.715 54.484l-11.315 25.622c-1.824 4.115-3.367 5.563-6.594 5.563-1.262 0-2.432-.327-3.226-.794-.515-.327-1.076-.749-.749-1.637l.188-.421c.28-.795 1.028-1.074 2.01-.607.516.233 1.17.421 1.731.421 1.402 0 2.197-.515 3.227-2.899l1.87-4.254-9.118-20.994c-.28-.702.141-1.31.889-1.31h1.59c.841 0 1.262.467 1.589 1.31l7.062 16.784 7.06-16.784c.327-.843.748-1.31 1.59-1.31h1.355c.746.001 1.168.608.841 1.31zM831.274 74.449c0-1.59 1.309-2.898 2.898-2.898 1.589 0 2.898 1.309 2.898 2.898 0 1.589-1.31 2.898-2.898 2.898-1.589.001-2.898-1.309-2.898-2.898z"/></g><path fill="#fff" d="M366.96 105.152c-1.614 0-2.922-1.308-2.922-2.922v-82.346c0-1.614 1.308-2.923 2.922-2.923s2.922 1.309 2.922 2.923v82.347c0 1.614-1.308 2.921-2.922 2.921z"/><g fill="#fff"><path d="M175.979 83.447c1.066 1.98 0 3.048-1.828 3.048h-5.562c-1.979 0-2.438-.839-3.504-2.743l-9.141-16.455h-8.381v16.15c0 1.904-.99 3.048-2.895 3.048h-4.419c-1.903 0-2.971-1.144-2.971-3.048v-43.498c0-1.905 1.145-2.972 3.047-2.972h17.599c12.265 0 18.74 5.865 18.74 15.389 0 6.931-3.961 11.654-10.361 13.713l9.676 17.368zm-28.415-23.464h10.818c4.724 0 7.77-2.818 7.77-7.161 0-4.418-3.046-7.312-7.77-7.312h-10.818v14.473zM201.193 79.791c2.972 0 6.324-.839 9.675-3.428 1.372-1.066 2.438-1.296 3.655 0l1.83 1.828c1.448 1.446.838 2.59 0 3.504-3.885 3.961-10.667 5.789-16.073 5.789-11.429 0-20.721-7.847-20.721-20.034 0-11.504 8.455-20.036 19.957-20.036 5.792 0 10.668 2.057 13.942 5.332 3.58 3.505 5.56 8.532 5.56 13.865 0 2.132-.837 3.124-3.123 3.124h-26.357c.61 6.476 5.789 10.056 11.655 10.056zm-11.579-16.304h19.501c-.381-2.361-1.293-4.342-2.741-5.789-1.678-1.828-4.115-2.817-7.008-2.817-5.256 0-8.99 3.35-9.752 8.606zM263.963 34.997v48.526c0 1.828-1.067 2.972-2.895 2.972h-3.049c-1.827 0-2.817-1.144-2.817-2.972v-1.6c-3.048 3.352-7.39 5.561-12.722 5.561-11.2 0-19.197-8.837-19.197-20.034 0-11.275 7.997-20.036 19.197-20.036 4.342 0 8.227 1.447 11.352 3.733v-15.237c0-1.75.99-2.514 2.817-2.97l4.266-.763c2.058-.38 3.048.84 3.048 2.82zm-9.522 32.453c0-7.238-4.725-11.275-10.513-11.275-6.398 0-10.591 5.027-10.591 11.275 0 6.246 4.192 11.197 10.591 11.197 5.789 0 10.513-4.037 10.513-11.197zM309.211 34.997v48.526c0 1.828-1.064 2.972-2.895 2.972h-3.046c-1.83 0-2.82-1.144-2.82-2.972v-1.6c-3.046 3.352-7.39 5.561-12.722 5.561-11.197 0-19.197-8.837-19.197-20.034 0-11.275 8-20.036 19.197-20.036 4.344 0 8.228 1.447 11.351 3.733v-15.237c0-1.75.99-2.514 2.818-2.97l4.268-.763c2.058-.38 3.046.84 3.046 2.82zm-9.521 32.453c0-7.238-4.725-11.275-10.514-11.275-6.398 0-10.591 5.027-10.591 11.275 0 6.246 4.192 11.197 10.591 11.197 5.79 0 10.514-4.037 10.514-11.197z"/></g><path fill="#00AEEF" d="M70.064 7.592c-2.103-.249-4.241-.392-6.413-.392-19.616 0-36.787 10.46-46.244 26.108l17.511 21.567 43.277-17.857-8.131-29.426z"/><path fill="#E31B23" d="M78.195 37.019l-43.277 17.857 26.326 32.424 25.639-18.831z"/><path fill="#008FC5" d="M17.407 33.309c-4.921 8.142-7.756 17.684-7.756 27.893 0 1.357.068 2.698.166 4.031l25.101-10.356-17.511-21.568z"/><path fill="#FDBB30" d="M115.813 47.218c-5.625-21.042-23.637-37.008-45.749-39.626l16.818 60.877 28.931-21.251z"/><path fill="#54B948" d="M34.918 54.876l-25.101 10.356c1.294 17.486 10.905 32.648 24.902 41.554l26.525-19.486-26.326-32.424z"/><path fill="#8DC63F" d="M34.72 106.786c8.363 5.321 18.286 8.414 28.932 8.414 6.239 0 12.225-1.068 17.798-3.016l-20.206-24.884-26.524 19.486z"/><path fill="#F04D3C" d="M86.83 68.508l-25.586 18.792 20.205 24.885c5.524-1.929 10.635-4.729 15.176-8.235l-9.795-35.442z"/><path fill="#FFD200" d="M86.828 68.503l9.8 35.457c12.804-9.924 21.024-25.377 21.024-42.759 0-4.839-.645-9.523-1.839-13.983l-28.985 21.285z"/></svg>