<svg xmlns="http://www.w3.org/2000/svg" width="522" height="198" viewBox="0 0 522 198"><path d="M286.984 136.739c1.808 3.361 0 5.17-3.101 5.17h-9.436c-3.358 0-4.135-1.422-5.945-4.652l-15.507-27.914h-14.215v27.396c0 3.231-1.681 5.17-4.91 5.17h-7.495c-3.231 0-5.04-1.938-5.04-5.17v-73.791c0-3.231 1.938-5.041 5.167-5.041h29.854c20.807 0 31.791 9.951 31.791 26.104 0 11.762-6.72 19.773-17.575 23.262l16.412 29.466zm-48.204-39.802h18.352c8.014 0 13.182-4.782 13.182-12.149 0-7.495-5.168-12.405-13.182-12.405h-18.352v24.554zM329.755 130.537c5.043 0 10.727-1.42 16.413-5.814 2.327-1.81 4.135-2.197 6.204 0l3.103 3.1c2.454 2.456 1.42 4.394 0 5.946-6.592 6.719-18.096 9.821-27.269 9.821-19.387 0-35.151-13.312-35.151-33.99 0-19.514 14.345-33.986 33.858-33.986 9.822 0 18.094 3.488 23.648 9.046 6.074 5.944 9.434 14.474 9.434 23.521 0 3.617-1.422 5.298-5.298 5.298h-44.714c1.034 10.985 9.823 17.058 19.772 17.058zm-19.643-27.656h33.083c-.646-4.007-2.195-7.366-4.651-9.822-2.844-3.102-6.979-4.781-11.89-4.781-8.916-.001-15.249 5.686-16.542 14.603zM436.238 54.547v82.322c0 3.102-1.81 5.04-4.909 5.04h-5.171c-3.1 0-4.78-1.938-4.78-5.04v-2.715c-5.17 5.688-12.537 9.436-21.583 9.436-18.997 0-32.564-14.991-32.564-33.99 0-19.125 13.567-33.986 32.564-33.986 7.365 0 13.957 2.456 19.255 6.332v-25.847c0-2.972 1.683-4.266 4.782-5.04l7.238-1.292c3.489-.647 5.168 1.421 5.168 4.78zm-16.154 55.053c0-12.275-8.012-19.125-17.833-19.125-10.855 0-17.965 8.528-17.965 19.125 0 10.599 7.109 18.999 17.965 18.999 9.821 0 17.833-6.851 17.833-18.999zM513 54.547v82.322c0 3.102-1.81 5.04-4.912 5.04h-5.168c-3.103 0-4.784-1.938-4.784-5.04v-2.715c-5.166 5.688-12.534 9.436-21.578 9.436-18.998 0-32.57-14.991-32.57-33.99 0-19.125 13.572-33.986 32.57-33.986 7.365 0 13.956 2.456 19.253 6.332v-25.847c0-2.972 1.681-4.266 4.782-5.04l7.237-1.292c3.489-.647 5.17 1.421 5.17 4.78zm-16.153 55.053c0-12.275-8.012-19.125-17.835-19.125-10.855 0-17.965 8.528-17.965 19.125 0 10.599 7.109 18.999 17.965 18.999 9.823 0 17.835-6.851 17.835-18.999zM51.236 84.593l71.456-29.484-13.052-47.253c-3.107-.312-6.08-.465-9.035-.465-31.711 0-60.512 15.901-77.43 42.641l28.061 34.561zM138.022 110.601l-13.84-50.106-69.296 28.595 42 51.726zM9.06 101.996l36.824-15.193-25.713-31.669c-7.32 13.405-11.171 28.486-11.171 43.866 0 .967.018 1.954.06 2.996zM115.613 8.645l27.194 98.439 45.776-33.625c-9.748-33.601-38.569-59.098-72.97-64.814zM192.213 99c0-6.637-.723-13.262-2.15-19.742l-45.674 33.549 15.477 56.024c20.61-17.47 32.347-42.688 32.347-69.831zM155.146 172.58l-15.542-56.257-39.218 28.806 32.235 39.701c8.046-3.001 15.607-7.114 22.525-12.25zM49.941 175.301l42.467-31.196-42.875-52.806-40.083 16.538c2.629 27.26 17.614 52.233 40.491 67.464zM55.024 178.449c13.849 7.967 29.521 12.159 45.58 12.159 8.98 0 17.843-1.307 26.404-3.89l-31.1-38.301-40.884 30.032z"/></svg>