<svg xmlns="http://www.w3.org/2000/svg" width="813.6" height="122.4" viewBox="0 0 813.6 122.4"><path d="M366.96 105.152c-1.614 0-2.922-1.308-2.922-2.922v-82.346c0-1.614 1.308-2.923 2.922-2.923s2.922 1.309 2.922 2.923v82.347c0 1.614-1.308 2.921-2.922 2.921zM175.979 83.447c1.066 1.98 0 3.048-1.828 3.048h-5.562c-1.979 0-2.438-.839-3.504-2.743l-9.141-16.455h-8.381v16.15c0 1.904-.99 3.048-2.895 3.048h-4.419c-1.903 0-2.971-1.144-2.971-3.048v-43.498c0-1.905 1.145-2.972 3.047-2.972h17.599c12.265 0 18.74 5.865 18.74 15.389 0 6.931-3.961 11.654-10.361 13.713l9.676 17.368zm-28.415-23.464h10.818c4.724 0 7.77-2.818 7.77-7.161 0-4.418-3.046-7.312-7.77-7.312h-10.818v14.473zM201.193 79.791c2.972 0 6.324-.839 9.675-3.428 1.372-1.066 2.438-1.296 3.655 0l1.83 1.828c1.448 1.446.838 2.59 0 3.504-3.885 3.961-10.667 5.789-16.073 5.789-11.429 0-20.721-7.847-20.721-20.034 0-11.504 8.455-20.036 19.957-20.036 5.792 0 10.668 2.057 13.942 5.332 3.58 3.505 5.56 8.532 5.56 13.865 0 2.132-.837 3.124-3.123 3.124h-26.357c.61 6.476 5.789 10.056 11.655 10.056zm-11.579-16.304h19.501c-.381-2.361-1.293-4.342-2.741-5.789-1.678-1.828-4.115-2.817-7.008-2.817-5.256 0-8.99 3.35-9.752 8.606zM263.963 34.997v48.526c0 1.828-1.067 2.972-2.895 2.972h-3.049c-1.827 0-2.817-1.144-2.817-2.972v-1.6c-3.048 3.352-7.39 5.561-12.722 5.561-11.2 0-19.197-8.837-19.197-20.034 0-11.275 7.997-20.036 19.197-20.036 4.342 0 8.227 1.447 11.352 3.733v-15.237c0-1.75.99-2.514 2.817-2.97l4.266-.763c2.058-.38 3.048.84 3.048 2.82zm-9.522 32.453c0-7.238-4.725-11.275-10.513-11.275-6.398 0-10.591 5.027-10.591 11.275 0 6.246 4.192 11.197 10.591 11.197 5.789 0 10.513-4.037 10.513-11.197zM309.211 34.997v48.526c0 1.828-1.064 2.972-2.895 2.972h-3.046c-1.83 0-2.82-1.144-2.82-2.972v-1.6c-3.046 3.352-7.39 5.561-12.722 5.561-11.197 0-19.197-8.837-19.197-20.034 0-11.275 8-20.036 19.197-20.036 4.344 0 8.228 1.447 11.351 3.733v-15.237c0-1.75.99-2.514 2.818-2.97l4.268-.763c2.058-.38 3.046.84 3.046 2.82zm-9.521 32.453c0-7.238-4.725-11.275-10.514-11.275-6.398 0-10.591 5.027-10.591 11.275 0 6.246 4.192 11.197 10.591 11.197 5.79 0 10.514-4.037 10.514-11.197z"/><path fill="#00AEEF" d="M70.064 7.592c-2.103-.249-4.241-.392-6.413-.392-19.616 0-36.787 10.46-46.244 26.108l17.511 21.567 43.277-17.857-8.131-29.426z"/><path fill="#E31B23" d="M78.195 37.019l-43.277 17.857 26.326 32.424 25.639-18.831z"/><path fill="#008FC5" d="M17.407 33.309c-4.921 8.142-7.756 17.684-7.756 27.893 0 1.357.068 2.698.166 4.031l25.101-10.356-17.511-21.568z"/><path fill="#FDBB30" d="M115.813 47.218c-5.625-21.042-23.637-37.008-45.749-39.626l16.818 60.877 28.931-21.251z"/><path fill="#54B948" d="M34.918 54.876l-25.101 10.356c1.294 17.486 10.905 32.648 24.902 41.554l26.525-19.486-26.326-32.424z"/><path fill="#8DC63F" d="M34.72 106.786c8.363 5.321 18.286 8.414 28.932 8.414 6.239 0 12.225-1.068 17.798-3.016l-20.206-24.884-26.524 19.486z"/><path fill="#F04D3C" d="M86.83 68.508l-25.586 18.792 20.205 24.885c5.524-1.929 10.635-4.729 15.176-8.235l-9.795-35.442z"/><path fill="#FFD200" d="M86.828 68.503l9.8 35.457c12.804-9.924 21.024-25.377 21.024-42.759 0-4.839-.645-9.523-1.839-13.983l-28.985 21.285z"/><path d="M419.429 72.813c-.514-.701-.842-1.449.047-2.15l.327-.327c.748-.609 1.45-.937 2.151 0 2.057 2.805 5.751 4.16 8.557 4.16 4.302 0 6.967-2.149 6.967-5.002 0-4.303-4.582-4.863-9.585-6.733-3.226-1.216-7.762-3.04-7.762-8.136 0-4.77 4.068-8.229 10.1-8.229 4.162 0 7.341 1.59 9.492 3.881.561.607.982 1.309.094 2.104l-.421.374c-.608.56-1.309.888-2.104.093-1.777-1.823-4.021-3.086-7.014-3.086-3.646 0-6.266 1.823-6.266 4.535 0 2.898 2.806 3.975 5.938 5.144 5.097 1.87 11.409 3.18 11.409 9.914 0 5.236-4.442 8.556-10.661 8.556-4.349-.001-8.838-1.638-11.269-5.098zM445.19 65.659c0-6.92 5.283-12.25 12.438-12.25 7.154 0 12.438 5.33 12.438 12.25 0 6.921-5.284 12.251-12.438 12.251-7.154 0-12.438-5.33-12.438-12.251zm21.135 0c0-5.143-3.6-8.931-8.697-8.931-5.05 0-8.697 3.788-8.697 8.931 0 5.144 3.601 8.932 8.697 8.932s8.697-3.788 8.697-8.932zM473.757 74.169c-.468-.606-.749-1.309.093-1.963l.328-.327c.654-.562 1.262-.749 2.01.046 1.543 1.73 3.6 2.759 5.938 2.759 2.852 0 4.816-1.31 4.816-3.366 0-2.665-2.618-3.601-5.564-4.816-3.32-1.356-6.64-2.805-6.64-6.593 0-3.928 3.133-6.499 7.902-6.499 2.524 0 5.097.842 7.107 2.992.561.562.842 1.216.094 2.01l-.327.328c-.515.515-1.216.842-2.011.094-1.73-1.683-2.992-2.244-4.956-2.244-2.479 0-4.068 1.216-4.068 2.992 0 1.87 1.87 2.759 4.441 3.881 4.021 1.729 7.762 3.086 7.762 7.808 0 4.022-3.366 6.641-8.37 6.641-2.991-.002-6.451-1.264-8.555-3.743zM514.856 55.046l-11.316 25.623c-1.823 4.115-3.366 5.563-6.593 5.563-1.262 0-2.431-.327-3.226-.794-.515-.327-1.075-.749-.748-1.638l.187-.42c.28-.795 1.028-1.075 2.01-.608.515.234 1.169.422 1.73.422 1.403 0 2.198-.515 3.227-2.899l1.87-4.256-9.118-20.993c-.281-.702.14-1.31.888-1.31h1.59c.841 0 1.262.467 1.589 1.31l7.061 16.785 7.06-16.785c.327-.843.748-1.31 1.589-1.31h1.356c.751 0 1.172.608.844 1.31zM537.298 62.994v12.999c0 .889-.375 1.355-1.216 1.355h-.935c-.842 0-1.263-.561-1.263-1.355v-1.73c-1.964 2.292-4.91 3.647-8.042 3.647-5.424 0-9.071-3.039-9.071-7.622 0-4.675 3.974-7.808 9.913-7.808 2.759 0 5.097.748 7.061 1.683v-1.871c0-3.413-2.572-5.656-6.406-5.656-2.197 0-4.769.701-7.06 2.431-.749.562-1.31.281-1.777-.327l-.28-.374c-.608-.795-.281-1.59.374-2.058 3.273-2.291 5.938-2.898 8.931-2.898 6.17-.001 9.771 3.413 9.771 9.584zm-3.507 5.845v-1.496c-1.496-.748-4.115-1.824-6.967-1.824-3.834 0-6.359 1.965-6.359 4.817 0 2.665 2.338 4.395 5.798 4.395 3.74-.001 7.528-2.245 7.528-5.892zM544.402 75.993v-30.392c0-.702.421-1.123 1.262-1.356l.982-.234c1.028-.279 1.449.282 1.449 1.264v30.72c0 .795-.467 1.355-1.263 1.355h-1.169c-.793-.001-1.261-.562-1.261-1.357zM590.831 65.659c0 6.78-4.816 12.251-11.83 12.251-3.507 0-6.359-1.403-8.37-3.507v10.474c0 .842-.421 1.355-1.262 1.355h-1.169c-.794 0-1.263-.514-1.263-1.355v-29.785c0-.841.468-1.355 1.263-1.355h1.029c.841 0 1.262.515 1.262 1.355v1.871c2.058-2.198 5.003-3.554 8.51-3.554 7.014 0 11.83 5.424 11.83 12.25zm-3.788 0c0-4.862-3.227-8.931-8.463-8.931-4.442 0-8.323 2.946-8.323 8.931 0 5.938 3.834 8.932 8.323 8.932 5.237 0 8.463-4.069 8.463-8.932zM615.236 62.994v12.999c0 .889-.374 1.355-1.215 1.355h-.935c-.842 0-1.263-.561-1.263-1.355v-1.73c-1.964 2.292-4.91 3.647-8.042 3.647-5.424 0-9.071-3.039-9.071-7.622 0-4.675 3.975-7.808 9.913-7.808 2.759 0 5.096.748 7.06 1.683v-1.871c0-3.413-2.571-5.656-6.406-5.656-2.197 0-4.769.701-7.061 2.431-.748.562-1.309.281-1.777-.327l-.281-.374c-.607-.795-.28-1.59.375-2.058 3.273-2.291 5.938-2.898 8.931-2.898 6.172-.001 9.772 3.413 9.772 9.584zm-3.507 5.845v-1.496c-1.497-.748-4.115-1.824-6.967-1.824-3.834 0-6.359 1.965-6.359 4.817 0 2.665 2.337 4.395 5.798 4.395 3.74-.001 7.528-2.245 7.528-5.892zM634.918 55.373l-.187.748c-.28.935-.982 1.029-1.683.842-.561-.188-1.076-.281-1.637-.281-3.46 0-5.517 3.086-5.517 7.294v12.018c0 .795-.421 1.355-1.263 1.355h-1.169c-.794 0-1.262-.561-1.262-1.355v-20.902c0-.841.468-1.355 1.262-1.355h.936c.795 0 1.262.515 1.262 1.355v1.964c1.263-2.244 3.273-3.646 6.079-3.646 1.075 0 1.589.094 2.384.28.655.186 1.122.561.795 1.683zM656.846 62.994v12.999c0 .889-.374 1.355-1.215 1.355h-.935c-.842 0-1.263-.561-1.263-1.355v-1.73c-1.964 2.292-4.91 3.647-8.042 3.647-5.424 0-9.071-3.039-9.071-7.622 0-4.675 3.974-7.808 9.913-7.808 2.759 0 5.096.748 7.06 1.683v-1.871c0-3.413-2.571-5.656-6.406-5.656-2.197 0-4.769.701-7.061 2.431-.748.562-1.309.281-1.777-.327l-.28-.374c-.608-.795-.28-1.59.374-2.058 3.273-2.291 5.938-2.898 8.931-2.898 6.172-.001 9.772 3.413 9.772 9.584zm-3.507 5.845v-1.496c-1.497-.748-4.115-1.824-6.967-1.824-3.834 0-6.359 1.965-6.359 4.817 0 2.665 2.337 4.395 5.798 4.395 3.741-.001 7.528-2.245 7.528-5.892zM699.205 65.659c0 6.78-4.816 12.251-11.83 12.251-3.6 0-6.499-1.403-8.51-3.647v1.73c0 .795-.468 1.355-1.262 1.355h-1.029c-.795 0-1.263-.561-1.263-1.355v-30.392c0-.702.421-1.123 1.263-1.356l.981-.234c1.029-.279 1.45.282 1.45 1.264v11.55c2.058-2.104 4.957-3.414 8.37-3.414 7.014-.002 11.83 5.422 11.83 12.248zm-3.788 0c0-4.862-3.226-8.931-8.463-8.931-4.441 0-8.463 2.946-8.322 8.931.14 5.938 3.833 8.932 8.322 8.932 5.237 0 8.463-4.069 8.463-8.932zM703.878 46.535c0-1.589 1.309-2.898 2.898-2.898 1.59 0 2.899 1.31 2.899 2.898 0 1.638-1.309 2.898-2.899 2.898-1.589.001-2.898-1.26-2.898-2.898zm1.028 29.458v-20.901c0-.841.468-1.355 1.263-1.355h1.169c.795 0 1.262.515 1.262 1.355v20.901c0 .795-.467 1.355-1.262 1.355h-1.169c-.795.001-1.263-.56-1.263-1.355zM728.612 55.373l-.187.748c-.281.935-.982 1.029-1.683.842-.561-.188-1.076-.281-1.637-.281-3.46 0-5.518 3.086-5.518 7.294v12.018c0 .795-.421 1.355-1.263 1.355h-1.169c-.795 0-1.262-.561-1.262-1.355v-20.902c0-.841.467-1.355 1.262-1.355h.936c.795 0 1.262.515 1.262 1.355v1.964c1.263-2.244 3.273-3.646 6.079-3.646 1.076 0 1.589.094 2.385.28.655.186 1.122.561.795 1.683zM731.509 46.535c0-1.589 1.309-2.898 2.898-2.898 1.59 0 2.899 1.31 2.899 2.898 0 1.638-1.309 2.898-2.899 2.898-1.589.001-2.898-1.26-2.898-2.898zm1.028 29.458v-20.901c0-.841.468-1.355 1.263-1.355h1.169c.795 0 1.262.515 1.262 1.355v20.901c0 .795-.467 1.355-1.262 1.355h-1.169c-.795.001-1.263-.56-1.263-1.355zM780.604 63.135v12.858c0 .795-.467 1.355-1.263 1.355h-1.215c-.795 0-1.216-.561-1.216-1.355v-12.531c0-4.114-2.291-6.78-6.219-6.78s-6.78 2.666-6.78 6.78v12.531c0 .795-.42 1.355-1.215 1.355h-1.216c-.795 0-1.262-.561-1.262-1.355v-12.531c0-4.114-2.292-6.78-6.219-6.78-3.927 0-6.78 2.666-6.78 6.78v12.531c0 .795-.421 1.355-1.263 1.355h-1.169c-.795 0-1.262-.561-1.262-1.355v-20.901c0-.841.467-1.355 1.262-1.355h.936c.795 0 1.262.515 1.262 1.355v1.917c1.637-2.244 4.302-3.6 7.715-3.6 3.881 0 6.686 1.776 8.136 4.675 1.59-2.852 4.583-4.675 8.51-4.675 5.798 0 9.258 4.021 9.258 9.726zM786.585 46.535c0-1.589 1.309-2.898 2.899-2.898s2.899 1.31 2.899 2.898c0 1.638-1.309 2.898-2.899 2.898s-2.899-1.26-2.899-2.898zm1.029 29.458v-20.901c0-.841.467-1.355 1.262-1.355h1.169c.795 0 1.262.515 1.262 1.355v20.901c0 .795-.467 1.355-1.262 1.355h-1.169c-.795.001-1.262-.56-1.262-1.355zM797.432 75.011c0-1.589 1.31-2.898 2.899-2.898s2.898 1.31 2.898 2.898c0 1.59-1.309 2.899-2.898 2.899-1.59 0-2.899-1.309-2.899-2.899zM366.96 105.154c-1.614 0-2.922-1.309-2.922-2.923v-82.347c0-1.614 1.308-2.923 2.922-2.923s2.922 1.309 2.922 2.923v82.348c.001 1.614-1.307 2.922-2.922 2.922z"/></svg>