<svg xmlns="http://www.w3.org/2000/svg" width="835" height="122.4" viewBox="0 0 835 122.4"><path fill="#fff" d="M366.284 105.152c-1.614 0-2.922-1.308-2.922-2.922v-82.346c0-1.614 1.308-2.923 2.922-2.923s2.922 1.309 2.922 2.923v82.347c0 1.614-1.308 2.921-2.922 2.921z"/><g fill="#fff"><path d="M442.359 76.223c-1.45.748-4.489 1.497-8.323 1.497-8.884 0-15.523-5.611-15.523-15.991 0-9.913 6.687-16.552 16.458-16.552 3.881 0 6.406.842 7.481 1.402l-1.029 3.32c-1.496-.749-3.693-1.309-6.312-1.309-7.387 0-12.297 4.722-12.297 12.997 0 7.762 4.442 12.671 12.063 12.671 2.525 0 5.049-.514 6.686-1.309l.796 3.274zM467.091 65.702c0 8.37-5.845 12.018-11.269 12.018-6.078 0-10.848-4.489-10.848-11.643 0-7.527 5.003-11.97 11.222-11.97 6.5 0 10.895 4.722 10.895 11.595zm-17.908.235c0 4.956 2.806 8.697 6.827 8.697 3.928 0 6.874-3.694 6.874-8.791 0-3.834-1.917-8.649-6.78-8.649-4.817-.001-6.921 4.488-6.921 8.743zM476.253 54.575v19.403h10.427v-19.403h4.068v19.543l2.338.048-.234 10.193h-3.226l-.187-7.154h-17.3v-22.63h4.114zM501.78 54.575v9.538c0 3.553-.093 5.845-.281 9.071l.141.046c1.403-2.759 2.151-4.349 3.694-6.967l7.06-11.688h4.816v22.63h-3.927v-9.585c0-3.694.093-5.611.28-9.305h-.093c-1.497 2.944-2.432 4.77-3.788 7.06-2.15 3.507-4.675 7.855-7.06 11.83h-4.769v-22.63h3.927zM539.79 71.781c0 1.964.094 3.881.328 5.424h-3.694l-.327-2.853h-.141c-1.262 1.776-3.693 3.367-6.92 3.367-4.582 0-6.92-3.227-6.92-6.5 0-5.47 4.862-8.462 13.606-8.416v-.467c0-1.824-.515-5.237-5.143-5.19-2.151 0-4.349.607-5.938 1.683l-.935-2.759c1.87-1.168 4.629-1.963 7.481-1.963 6.92 0 8.603 4.722 8.603 9.211v8.463zm-3.975-6.125c-4.489-.094-9.585.701-9.585 5.097 0 2.711 1.777 3.927 3.834 3.927 2.993 0 4.91-1.87 5.564-3.787.14-.467.187-.935.187-1.31v-3.927zM563.728 54.575v22.63h-4.115v-19.404h-7.762v5.798c0 6.359-.608 10.614-3.554 12.53-1.122.889-2.384 1.403-4.489 1.403l-.42-3.226c.795-.141 1.683-.468 2.244-.936 2.104-1.543 2.338-4.722 2.338-9.772v-9.023h15.758zM574.385 54.575v7.621c.982-.141 2.525-.234 3.74-.234 5.097 0 10.474 1.637 10.474 7.669 0 2.338-.935 3.974-2.385 5.189-2.478 2.104-6.545 2.619-9.865 2.619-2.245 0-4.349-.141-6.078-.328v-22.536h4.114zm-.047 19.732c.842.14 1.73.187 3.086.187 3.039 0 7.061-1.029 7.061-4.77 0-3.927-4.115-4.815-7.201-4.815-1.075 0-1.963.093-2.946.28v9.118zM597.667 54.575v9.117h10.708v-9.117h4.114v22.63h-4.114v-10.239h-10.708v10.239h-4.114v-22.63h4.114zM635.117 71.781c0 1.964.094 3.881.327 5.424h-3.693l-.328-2.853h-.141c-1.262 1.776-3.693 3.367-6.92 3.367-4.582 0-6.92-3.227-6.92-6.5 0-5.47 4.863-8.462 13.606-8.416v-.467c0-1.824-.515-5.237-5.143-5.19-2.151 0-4.349.607-5.938 1.683l-.936-2.759c1.87-1.168 4.629-1.963 7.481-1.963 6.92 0 8.603 4.722 8.603 9.211v8.463zm-3.974-6.125c-4.489-.094-9.585.701-9.585 5.097 0 2.711 1.777 3.927 3.834 3.927 2.993 0 4.91-1.87 5.564-3.787.141-.467.187-.935.187-1.31v-3.927zM658.586 77.205h-4.068v-9.492h-3.039c-1.73 0-2.899.468-3.741 1.309-1.73 1.356-2.338 4.115-3.227 6.313-.28.701-.607 1.309-.935 1.87h-4.396c.515-.749.982-1.59 1.403-2.571.982-2.198 1.543-5.144 3.554-6.827.701-.607 1.543-1.075 2.572-1.31v-.093c-2.946-.327-5.985-2.151-5.985-5.658 0-2.338 1.263-3.927 2.993-4.909 1.87-1.122 4.629-1.543 7.622-1.543 2.665 0 5.283.188 7.247.468v22.443zm-4.067-19.919c-1.029-.14-1.964-.234-3.414-.234-2.758 0-6.125.796-6.125 3.929 0 2.899 3.601 3.975 6.032 3.975h3.506v-7.67zM676.583 54.854c1.637-.279 4.582-.514 7.201-.514 3.834 0 10.1.655 10.1 5.658 0 2.805-2.151 4.582-4.723 5.142v.095c3.319.467 5.75 2.291 5.75 5.563 0 5.939-7.481 6.687-11.922 6.687-2.525 0-5.19-.187-6.406-.28v-22.351zm3.928 19.686c1.169.094 2.011.14 3.273.14 2.806 0 6.92-.607 6.92-3.927 0-3.273-3.32-3.975-7.201-3.975h-2.992v7.762zm.047-10.427h3.086c3.039 0 6.172-.888 6.172-3.601 0-2.245-1.964-3.319-6.078-3.319-1.403 0-2.244.093-3.18.187v6.733zM715.998 71.781c0 1.964.094 3.881.327 5.424h-3.693l-.328-2.853h-.14c-1.262 1.776-3.693 3.367-6.92 3.367-4.582 0-6.92-3.227-6.92-6.5 0-5.47 4.862-8.462 13.606-8.416v-.467c0-1.824-.515-5.237-5.144-5.19-2.151 0-4.349.607-5.938 1.683l-.935-2.759c1.87-1.168 4.628-1.963 7.481-1.963 6.919 0 8.603 4.722 8.603 9.211v8.463zm-3.975-6.125c-4.488-.094-9.585.701-9.585 5.097 0 2.711 1.777 3.927 3.834 3.927 2.992 0 4.91-1.87 5.564-3.787.14-.467.187-.935.187-1.31v-3.927zM739.936 54.575v22.63h-4.115v-19.404h-7.762v5.798c0 6.359-.608 10.614-3.554 12.53-1.122.889-2.384 1.403-4.489 1.403l-.42-3.226c.795-.141 1.683-.468 2.244-.936 2.104-1.543 2.338-4.722 2.338-9.772v-9.023h15.758zM750.546 54.575v9.538h3.881c.702-5.985 4.583-10.006 10.006-10.006 5.938 0 9.959 4.628 9.959 11.595 0 7.342-4.488 12.018-10.193 12.018-5.47 0-9.398-4.021-9.866-10.475h-3.787v9.96h-4.021v-22.63h4.021zm19.732 11.222c0-4.209-1.917-8.604-5.938-8.604-3.974 0-6.078 4.255-6.078 8.836 0 4.396 2.011 8.65 6.032 8.65 4.113.001 5.984-4.581 5.984-8.882zM794.495 54.575v3.226h-7.06v19.404h-4.115v-19.404h-7.061v-3.226h18.236zM813.664 71.781c0 1.964.094 3.881.327 5.424h-3.693l-.328-2.853h-.14c-1.263 1.776-3.694 3.367-6.92 3.367-4.582 0-6.92-3.227-6.92-6.5 0-5.47 4.862-8.462 13.606-8.416v-.467c0-1.824-.515-5.237-5.144-5.19-2.15 0-4.348.607-5.938 1.683l-.935-2.759c1.87-1.168 4.629-1.963 7.481-1.963 6.92 0 8.603 4.722 8.603 9.211v8.463zm-3.975-6.125c-4.489-.094-9.585.701-9.585 5.097 0 2.711 1.777 3.927 3.834 3.927 2.993 0 4.91-1.87 5.564-3.787.141-.467.188-.935.188-1.31v-3.927zM819.319 74.867c0-1.59 1.31-2.898 2.899-2.898s2.898 1.309 2.898 2.898c0 1.589-1.309 2.899-2.898 2.899-1.59.001-2.899-1.31-2.899-2.899z"/></g><path fill="#fff" d="M366.28 105.009c-1.614 0-2.922-1.308-2.922-2.922v-82.346c0-1.614 1.308-2.923 2.922-2.923s2.922 1.309 2.922 2.923v82.346c0 1.614-1.308 2.922-2.922 2.922z"/><g fill="#fff"><path d="M175.302 83.304c1.066 1.98 0 3.048-1.828 3.048h-5.562c-1.98 0-2.438-.838-3.504-2.743l-9.141-16.455h-8.38v16.15c0 1.904-.99 3.048-2.896 3.048h-4.418c-1.903 0-2.97-1.144-2.97-3.048v-43.498c0-1.904 1.144-2.971 3.046-2.971h17.598c12.265 0 18.74 5.864 18.74 15.388 0 6.932-3.961 11.655-10.361 13.713l9.676 17.368zm-28.415-23.464h10.818c4.724 0 7.769-2.818 7.769-7.159 0-4.419-3.045-7.313-7.769-7.313h-10.818v14.472zM200.515 79.647c2.972 0 6.324-.839 9.675-3.428 1.372-1.066 2.438-1.296 3.655 0l1.83 1.828c1.448 1.446.838 2.59 0 3.504-3.885 3.962-10.667 5.789-16.073 5.789-11.429 0-20.721-7.847-20.721-20.034 0-11.502 8.455-20.035 19.957-20.035 5.792 0 10.667 2.056 13.942 5.332 3.579 3.504 5.56 8.532 5.56 13.864 0 2.133-.837 3.124-3.124 3.124h-26.356c.61 6.476 5.789 10.056 11.655 10.056zm-11.578-16.302h19.5c-.38-2.361-1.292-4.342-2.741-5.789-1.677-1.828-4.115-2.817-7.007-2.817-5.257-.001-8.992 3.35-9.752 8.606zM263.284 34.854v48.526c0 1.828-1.067 2.972-2.895 2.972h-3.048c-1.828 0-2.817-1.144-2.817-2.972v-1.6c-3.048 3.353-7.39 5.561-12.722 5.561-11.2 0-19.197-8.837-19.197-20.034 0-11.275 7.998-20.035 19.197-20.035 4.342 0 8.227 1.447 11.351 3.733v-15.237c0-1.75.99-2.515 2.817-2.97l4.266-.763c2.058-.381 3.048.84 3.048 2.819zm-9.521 32.453c0-7.237-4.725-11.275-10.513-11.275-6.398 0-10.59 5.028-10.59 11.275s4.192 11.197 10.59 11.197c5.788 0 10.513-4.037 10.513-11.197zM308.531 34.854v48.526c0 1.828-1.064 2.972-2.895 2.972h-3.045c-1.83 0-2.82-1.144-2.82-2.972v-1.6c-3.046 3.353-7.39 5.561-12.721 5.561-11.198 0-19.198-8.837-19.198-20.034 0-11.275 8-20.035 19.198-20.035 4.343 0 8.228 1.447 11.351 3.733v-15.237c0-1.75.99-2.515 2.818-2.97l4.267-.763c2.057-.381 3.045.84 3.045 2.819zm-9.52 32.453c0-7.237-4.724-11.275-10.513-11.275-6.399 0-10.591 5.028-10.591 11.275s4.192 11.197 10.591 11.197c5.789 0 10.513-4.037 10.513-11.197z"/></g><path fill="#00AEEF" d="M69.387 7.449c-2.103-.249-4.24-.392-6.413-.392-19.616 0-36.787 10.46-46.244 26.108l17.511 21.567 43.276-17.857-8.13-29.426z"/><path fill="#E31B23" d="M77.518 36.876l-43.277 17.857 26.326 32.423 25.639-18.831z"/><path fill="#008FC5" d="M16.73 33.166c-4.92 8.141-7.755 17.684-7.755 27.892 0 1.358.067 2.698.166 4.032l25.101-10.356-17.512-21.568z"/><path fill="#FDBB30" d="M115.136 47.075c-5.626-21.042-23.638-37.008-45.75-39.626l16.819 60.876 28.931-21.25z"/><path fill="#54B948" d="M34.241 54.733l-25.1 10.357c1.293 17.486 10.905 32.647 24.902 41.554l26.525-19.487-26.327-32.424z"/><path fill="#8DC63F" d="M34.042 106.644c8.364 5.32 18.286 8.414 28.932 8.414 6.24 0 12.225-1.069 17.798-3.016l-20.205-24.886-26.525 19.488z"/><path fill="#F04D3C" d="M86.153 68.364l-25.586 18.792 20.205 24.886c5.524-1.93 10.635-4.729 15.176-8.236l-9.795-35.442z"/><path fill="#FFD200" d="M86.151 68.36l9.8 35.456c12.803-9.924 21.024-25.377 21.024-42.759 0-4.838-.645-9.523-1.839-13.982l-28.985 21.285z"/></svg>