<svg xmlns="http://www.w3.org/2000/svg" width="871.2" height="122.4" viewBox="0 0 871.2 122.4"><path fill="#fff" d="M366.96 105.152c-1.614 0-2.922-1.308-2.922-2.922v-82.346c0-1.614 1.308-2.923 2.922-2.923s2.922 1.309 2.922 2.923v82.347c0 1.614-1.308 2.921-2.922 2.921z"/><g fill="#fff"><path d="M175.979 83.447c1.066 1.98 0 3.048-1.828 3.048h-5.562c-1.979 0-2.438-.839-3.504-2.743l-9.141-16.455h-8.381v16.15c0 1.904-.99 3.048-2.895 3.048h-4.419c-1.903 0-2.971-1.144-2.971-3.048v-43.498c0-1.905 1.145-2.972 3.047-2.972h17.599c12.265 0 18.74 5.865 18.74 15.389 0 6.931-3.961 11.654-10.361 13.713l9.676 17.368zm-28.415-23.464h10.818c4.724 0 7.77-2.818 7.77-7.161 0-4.418-3.046-7.312-7.77-7.312h-10.818v14.473zM201.193 79.791c2.972 0 6.324-.839 9.675-3.428 1.372-1.066 2.438-1.296 3.655 0l1.83 1.828c1.448 1.446.838 2.59 0 3.504-3.885 3.961-10.667 5.789-16.073 5.789-11.429 0-20.721-7.847-20.721-20.034 0-11.504 8.455-20.036 19.957-20.036 5.792 0 10.668 2.057 13.942 5.332 3.58 3.505 5.56 8.532 5.56 13.865 0 2.132-.837 3.124-3.123 3.124h-26.357c.61 6.476 5.789 10.056 11.655 10.056zm-11.579-16.304h19.501c-.381-2.361-1.293-4.342-2.741-5.789-1.678-1.828-4.115-2.817-7.008-2.817-5.256 0-8.99 3.35-9.752 8.606zM263.963 34.997v48.526c0 1.828-1.067 2.972-2.895 2.972h-3.049c-1.827 0-2.817-1.144-2.817-2.972v-1.6c-3.048 3.352-7.39 5.561-12.722 5.561-11.2 0-19.197-8.837-19.197-20.034 0-11.275 7.997-20.036 19.197-20.036 4.342 0 8.227 1.447 11.352 3.733v-15.237c0-1.75.99-2.514 2.817-2.97l4.266-.763c2.058-.38 3.048.84 3.048 2.82zm-9.522 32.453c0-7.238-4.725-11.275-10.513-11.275-6.398 0-10.591 5.027-10.591 11.275 0 6.246 4.192 11.197 10.591 11.197 5.789 0 10.513-4.037 10.513-11.197zM309.211 34.997v48.526c0 1.828-1.064 2.972-2.895 2.972h-3.046c-1.83 0-2.82-1.144-2.82-2.972v-1.6c-3.046 3.352-7.39 5.561-12.722 5.561-11.197 0-19.197-8.837-19.197-20.034 0-11.275 8-20.036 19.197-20.036 4.344 0 8.228 1.447 11.351 3.733v-15.237c0-1.75.99-2.514 2.818-2.97l4.268-.763c2.058-.38 3.046.84 3.046 2.82zm-9.521 32.453c0-7.238-4.725-11.275-10.514-11.275-6.398 0-10.591 5.027-10.591 11.275 0 6.246 4.192 11.197 10.591 11.197 5.79 0 10.514-4.037 10.514-11.197z"/></g><path fill="#00AEEF" d="M70.064 7.592c-2.103-.249-4.241-.392-6.413-.392-19.616 0-36.787 10.46-46.244 26.108l17.511 21.567 43.277-17.857-8.131-29.426z"/><path fill="#E31B23" d="M78.195 37.019l-43.277 17.857 26.326 32.424 25.639-18.831z"/><path fill="#008FC5" d="M17.407 33.309c-4.921 8.142-7.756 17.684-7.756 27.893 0 1.357.068 2.698.166 4.031l25.101-10.356-17.511-21.568z"/><path fill="#FDBB30" d="M115.813 47.218c-5.625-21.042-23.637-37.008-45.749-39.626l16.818 60.877 28.931-21.251z"/><path fill="#54B948" d="M34.918 54.876l-25.101 10.356c1.294 17.486 10.905 32.648 24.902 41.554l26.525-19.486-26.326-32.424z"/><path fill="#8DC63F" d="M34.72 106.786c8.363 5.321 18.286 8.414 28.932 8.414 6.239 0 12.225-1.068 17.798-3.016l-20.206-24.884-26.524 19.486z"/><path fill="#F04D3C" d="M86.83 68.508l-25.586 18.792 20.205 24.885c5.524-1.929 10.635-4.729 15.176-8.235l-9.795-35.442z"/><path fill="#FFD200" d="M86.828 68.503l9.8 35.457c12.804-9.924 21.024-25.377 21.024-42.759 0-4.839-.645-9.523-1.839-13.983l-28.985 21.285z"/><g fill="#fff"><path d="M421.766 75.946v-27.584c0-.889.514-1.403 1.403-1.403h10.379c9.538 0 15.803 6.078 15.803 15.148 0 9.163-6.265 15.241-15.803 15.241h-10.379c-.889.001-1.403-.56-1.403-1.402zm11.735-1.917c7.294 0 12.016-4.722 12.016-11.875s-4.722-11.876-12.016-11.876h-7.948v23.751h7.948zM454.167 46.538c0-1.589 1.309-2.898 2.898-2.898 1.59 0 2.899 1.31 2.899 2.898 0 1.637-1.309 2.899-2.899 2.899-1.589.001-2.898-1.262-2.898-2.899zm1.028 29.455v-20.898c0-.842.468-1.356 1.262-1.356h1.169c.795 0 1.263.515 1.263 1.356v20.898c0 .795-.468 1.355-1.263 1.355h-1.169c-.794.001-1.262-.56-1.262-1.355zM476.935 74.684c2.057 0 4.675-.561 7.2-2.665.841-.701 1.449-.607 2.01 0l.468.421c.701.748.374 1.402-.094 1.87-2.805 2.712-6.779 3.6-9.584 3.6-6.405 0-12.389-4.441-12.389-12.155 0-7.06 5.049-12.343 11.781-12.343 3.32 0 6.125 1.169 8.135 3.133 2.291 2.244 3.506 5.329 3.506 8.648 0 .889-.654 1.496-1.589 1.496h-18.047c.421 5.143 4.349 7.995 8.603 7.995zm-8.556-11.08h15.802c-.28-1.917-1.028-3.554-2.15-4.676-1.356-1.496-3.319-2.291-5.704-2.291-4.254 0-7.34 2.712-7.948 6.967zM503.024 74.169c-.467-.607-.748-1.309.094-1.963l.327-.327c.655-.562 1.262-.748 2.01.046 1.543 1.73 3.6 2.759 5.938 2.759 2.852 0 4.816-1.309 4.816-3.366 0-2.665-2.618-3.6-5.564-4.815-3.319-1.355-6.639-2.806-6.639-6.592 0-3.928 3.132-6.499 7.901-6.499 2.524 0 5.096.842 7.106 2.992.561.561.841 1.216.093 2.011l-.327.327c-.514.514-1.215.842-2.01.094-1.73-1.684-2.992-2.244-4.956-2.244-2.478 0-4.067 1.215-4.067 2.992 0 1.869 1.87 2.758 4.441 3.88 4.021 1.729 7.761 3.086 7.761 7.808 0 4.021-3.366 6.639-8.369 6.639-2.991-.002-6.451-1.264-8.555-3.742zM523.736 65.66c0-6.919 5.283-12.249 12.436-12.249s12.437 5.33 12.437 12.249c0 6.92-5.283 12.249-12.437 12.249s-12.436-5.329-12.436-12.249zm21.132 0c0-5.143-3.6-8.93-8.696-8.93-5.049 0-8.696 3.787-8.696 8.93 0 5.144 3.6 8.93 8.696 8.93s8.696-3.786 8.696-8.93zM551.04 75.993v-.562c0-.654.42-1.216 1.028-1.964l12.67-16.737h-11.828c-.842 0-1.356-.468-1.356-1.263v-.467c0-.795.561-1.263 1.356-1.263h15.101c.794 0 1.309.515 1.309 1.356v.561c0 .607-.421 1.216-1.029 1.964l-12.623 16.737h13.137c.795 0 1.31.468 1.31 1.263v.467c0 .795-.515 1.263-1.31 1.263h-16.457c-.794.001-1.308-.56-1.308-1.355zM573.762 46.538c0-1.589 1.309-2.898 2.898-2.898 1.59 0 2.899 1.31 2.899 2.898 0 1.637-1.309 2.899-2.899 2.899-1.589.001-2.898-1.262-2.898-2.899zm1.028 29.455v-20.898c0-.842.468-1.356 1.263-1.356h1.168c.795 0 1.262.515 1.262 1.356v20.898c0 .795-.467 1.355-1.262 1.355h-1.168c-.795.001-1.263-.56-1.263-1.355zM604.619 62.995v12.998c0 .888-.374 1.355-1.216 1.355h-.935c-.842 0-1.263-.561-1.263-1.355v-1.73c-1.963 2.291-4.909 3.646-8.042 3.646-5.423 0-9.07-3.038-9.07-7.62 0-4.676 3.974-7.808 9.912-7.808 2.758 0 5.096.748 7.06 1.683v-1.87c0-3.413-2.571-5.657-6.405-5.657-2.197 0-4.769.702-7.06 2.432-.748.561-1.309.28-1.777-.327l-.28-.374c-.608-.795-.28-1.59.374-2.058 3.272-2.291 5.938-2.898 8.93-2.898 6.172-.001 9.772 3.412 9.772 9.583zm-3.506 5.845v-1.496c-1.496-.748-4.114-1.823-6.966-1.823-3.834 0-6.358 1.963-6.358 4.815 0 2.665 2.338 4.395 5.797 4.395 3.74-.001 7.527-2.245 7.527-5.891zM611.726 75.993v-30.39c0-.701.421-1.122 1.262-1.356l.982-.233c1.028-.28 1.449.28 1.449 1.263v30.717c0 .795-.467 1.355-1.262 1.355h-1.169c-.795 0-1.262-.561-1.262-1.356zM633.512 74.684c2.057 0 4.675-.561 7.2-2.665.841-.701 1.449-.607 2.01 0l.468.421c.701.748.374 1.402-.094 1.87-2.805 2.712-6.779 3.6-9.584 3.6-6.405 0-12.389-4.441-12.389-12.155 0-7.06 5.049-12.343 11.781-12.343 3.32 0 6.125 1.169 8.135 3.133 2.291 2.244 3.506 5.329 3.506 8.648 0 .889-.654 1.496-1.589 1.496h-18.046c.421 5.143 4.348 7.995 8.602 7.995zm-8.555-11.08h15.802c-.28-1.917-1.028-3.554-2.15-4.676-1.356-1.496-3.319-2.291-5.704-2.291-4.255 0-7.341 2.712-7.948 6.967zM699.061 48.269l-10.333 28.191c-.28.842-.608 1.122-1.215 1.122h-.141c-.561 0-.935-.28-1.215-1.122l-7.808-22.207-7.621 22.207c-.328.842-.655 1.122-1.263 1.122h-.093c-.608 0-.935-.28-1.262-1.122l-10.286-28.191c-.28-.701.141-1.31.889-1.31h1.589c.842 0 1.45.421 1.73 1.31l7.48 21.833 7.621-22.254c.328-.842.608-1.122 1.216-1.122h.187c.607 0 .935.28 1.215 1.122l7.808 22.441 7.667-22.021c.328-.889.936-1.31 1.777-1.31h1.169c.748.001 1.122.563.889 1.311zM720.943 62.995v12.998c0 .888-.374 1.355-1.215 1.355h-.936c-.841 0-1.262-.561-1.262-1.355v-1.73c-1.963 2.291-4.909 3.646-8.042 3.646-5.423 0-9.07-3.038-9.07-7.62 0-4.676 3.974-7.808 9.912-7.808 2.758 0 5.096.748 7.06 1.683v-1.87c0-3.413-2.571-5.657-6.405-5.657-2.197 0-4.769.702-7.06 2.432-.748.561-1.309.28-1.776-.327l-.281-.374c-.608-.795-.281-1.59.374-2.058 3.273-2.291 5.938-2.898 8.93-2.898 6.171-.001 9.771 3.412 9.771 9.583zm-16.878-16.41c0-1.636 1.309-2.898 2.899-2.898 1.589 0 2.852 1.263 2.852 2.898 0 1.59-1.262 2.853-2.852 2.853-1.59 0-2.899-1.263-2.899-2.853zm13.372 22.255v-1.496c-1.496-.748-4.114-1.823-6.966-1.823-3.833 0-6.358 1.963-6.358 4.815 0 2.665 2.337 4.395 5.797 4.395 3.739-.001 7.527-2.245 7.527-5.891zm-4.863-22.255c0-1.636 1.262-2.898 2.898-2.898 1.59 0 2.852 1.263 2.852 2.898 0 1.59-1.262 2.853-2.852 2.853-1.636 0-2.898-1.263-2.898-2.853zM748.714 63.136v12.857c0 .795-.467 1.355-1.262 1.355h-1.168c-.795 0-1.263-.561-1.263-1.355v-12.53c0-4.114-2.524-6.779-6.499-6.779-4.021 0-6.873 2.665-6.873 6.779v12.53c0 .795-.468 1.355-1.263 1.355h-1.168c-.795 0-1.262-.561-1.262-1.355v-30.39c0-.701.42-1.122 1.262-1.356l.982-.233c1.028-.28 1.449.28 1.449 1.263v11.407c1.683-2.057 4.254-3.272 7.527-3.272 5.891-.001 9.538 4.02 9.538 9.724zM768.35 55.375l-.187.748c-.281.935-.982 1.028-1.683.841-.561-.187-1.076-.28-1.636-.28-3.46 0-5.517 3.086-5.517 7.294v12.016c0 .795-.421 1.355-1.262 1.355h-1.169c-.795 0-1.262-.561-1.262-1.355v-20.899c0-.842.467-1.356 1.262-1.356h.935c.795 0 1.262.515 1.262 1.356v1.963c1.263-2.244 3.273-3.646 6.078-3.646 1.075 0 1.589.094 2.384.28.655.187 1.122.561.795 1.683zM792.007 55.095v20.898c0 .795-.468 1.355-1.262 1.355h-.936c-.794 0-1.262-.561-1.262-1.355v-1.496c-1.589 2.104-4.067 3.412-7.434 3.412-5.563 0-9.257-3.88-9.257-9.678v-13.136c0-.842.468-1.356 1.263-1.356h1.215c.795 0 1.216.515 1.216 1.356v13.044c0 3.88 2.478 6.498 6.218 6.498 3.974 0 6.545-2.665 6.545-6.779v-12.763c0-.842.421-1.356 1.216-1.356h1.216c.795-.001 1.262.514 1.262 1.356zM820.013 63.136v12.857c0 .795-.421 1.355-1.263 1.355h-1.168c-.795 0-1.262-.561-1.262-1.355v-12.53c0-4.114-2.525-6.779-6.499-6.779-4.021 0-6.873 2.665-6.873 6.779v12.53c0 .795-.421 1.355-1.262 1.355h-1.169c-.795 0-1.262-.561-1.262-1.355v-20.898c0-.842.467-1.356 1.262-1.356h.935c.795 0 1.262.515 1.262 1.356v1.916c1.637-2.244 4.301-3.6 7.761-3.6 5.891 0 9.538 4.021 9.538 9.725zM848.532 55.095v20.243c0 7.621-5.517 10.894-11.595 10.894-4.582 0-7.948-1.636-10.753-4.955-.608-.702-.608-1.403.233-2.058l.374-.28c.562-.421 1.263-.608 1.917.187 2.011 2.524 4.395 3.928 8.275 3.928 4.488 0 7.901-2.385 7.901-7.48v-3.366c-1.917 2.01-4.722 3.272-8.088 3.272-6.639 0-11.455-4.815-11.455-11.034 0-6.218 4.815-11.033 11.501-11.033 3.506 0 6.358 1.355 8.275 3.507v-1.823c0-.842.421-1.356 1.216-1.356h.935c.797-.003 1.264.512 1.264 1.354zm-3.459 9.396c0-4.581-3.32-7.854-8.042-7.854-4.722 0-7.948 3.273-7.948 7.808s3.179 7.762 7.995 7.762c4.769-.001 7.995-3.228 7.995-7.716zM854.564 75.011c0-1.59 1.309-2.898 2.899-2.898 1.589 0 2.898 1.309 2.898 2.898s-1.309 2.898-2.898 2.898c-1.59 0-2.899-1.308-2.899-2.898z"/></g><path fill="#fff" d="M366.96 105.154c-1.614 0-2.922-1.309-2.922-2.923v-82.347c0-1.614 1.308-2.923 2.922-2.923s2.922 1.309 2.922 2.923v82.348c0 1.614-1.307 2.922-2.922 2.922z"/></svg>