<svg xmlns="http://www.w3.org/2000/svg" width="849.601" height="122.4" viewBox="0 0 849.601 122.4"><path d="M176.392 83.446c1.065 1.981 0 3.048-1.828 3.048h-5.562c-1.98 0-2.438-.839-3.505-2.743l-9.141-16.454h-8.38v16.149c0 1.904-.991 3.048-2.895 3.048h-4.418c-1.905 0-2.971-1.144-2.971-3.048v-43.497c0-1.905 1.143-2.972 3.046-2.972h17.598c12.265 0 18.74 5.866 18.74 15.388 0 6.933-3.962 11.655-10.36 13.712l9.676 17.369zm-28.415-23.463h10.817c4.724 0 7.771-2.818 7.771-7.161 0-4.418-3.047-7.312-7.771-7.312h-10.817v14.473zM201.603 79.79c2.973 0 6.327-.837 9.678-3.427 1.373-1.067 2.438-1.296 3.658 0l1.828 1.826c1.447 1.448.838 2.59 0 3.506-3.885 3.96-10.669 5.789-16.078 5.789-11.428 0-20.72-7.847-20.72-20.036 0-11.503 8.455-20.034 19.958-20.034 5.792 0 10.669 2.057 13.945 5.333 3.58 3.504 5.561 8.531 5.561 13.864 0 2.132-.84 3.123-3.123 3.123h-26.362c.61 6.476 5.791 10.056 11.655 10.056zm-11.578-16.302h19.504c-.379-2.362-1.293-4.343-2.742-5.79-1.679-1.828-4.117-2.818-7.011-2.818-5.256 0-8.989 3.351-9.751 8.608zM264.375 34.997v48.525c0 1.828-1.066 2.972-2.893 2.972h-3.049c-1.826 0-2.818-1.144-2.818-2.972v-1.6c-3.047 3.353-7.389 5.562-12.723 5.562-11.197 0-19.195-8.837-19.195-20.036 0-11.273 7.998-20.034 19.195-20.034 4.342 0 8.229 1.448 11.352 3.733v-15.236c0-1.752.992-2.515 2.818-2.971l4.268-.762c2.055-.38 3.045.839 3.045 2.819zm-9.521 32.451c0-7.236-4.723-11.273-10.512-11.273-6.4 0-10.59 5.027-10.59 11.273 0 6.248 4.189 11.199 10.59 11.199 5.789 0 10.512-4.038 10.512-11.199zM309.623 34.997v48.525c0 1.828-1.066 2.972-2.895 2.972h-3.047c-1.828 0-2.82-1.144-2.82-2.972v-1.6c-3.045 3.353-7.389 5.562-12.719 5.562-11.199 0-19.199-8.837-19.199-20.036 0-11.273 8-20.034 19.199-20.034 4.342 0 8.227 1.448 11.35 3.733v-15.236c0-1.752.99-2.515 2.818-2.971l4.266-.762c2.057-.38 3.047.839 3.047 2.819zm-9.521 32.451c0-7.236-4.723-11.273-10.512-11.273-6.4 0-10.59 5.027-10.59 11.273 0 6.248 4.189 11.199 10.59 11.199 5.789 0 10.512-4.038 10.512-11.199zM37.426 52.708l42.121-17.381-7.694-27.852c-1.832-.184-3.584-.275-5.326-.275-18.692 0-35.669 9.373-45.642 25.135l16.541 20.373zM88.583 68.038l-8.158-29.535-40.847 16.855 24.757 30.492zM12.564 62.966l21.707-8.955-15.157-18.668c-4.314 7.901-6.584 16.792-6.584 25.857-.001.571.01 1.153.034 1.766zM75.375 7.938l16.03 58.027 26.983-19.821c-5.747-19.806-22.736-34.835-43.013-38.206zM120.527 61.2c0-3.912-.426-7.817-1.268-11.638l-26.923 19.777 9.123 33.024c12.149-10.298 19.068-25.163 19.068-41.163zM98.677 104.573l-9.162-33.161-23.117 16.98 19.002 23.402c4.742-1.769 9.199-4.193 13.277-7.221zM36.663 106.177l25.033-18.389-25.274-31.128-23.627 9.749c1.549 16.069 10.382 30.79 23.868 39.768zM39.66 108.033c8.163 4.695 17.401 7.167 26.867 7.167 5.294 0 10.518-.771 15.564-2.293l-18.332-22.577-24.099 17.703zM428.215 75.384v-25.669h-8.65c-.84 0-1.355-.468-1.355-1.31v-.701c0-.842.516-1.309 1.355-1.309h21.088c.889 0 1.402.467 1.402 1.309v.701c0 .842-.514 1.31-1.402 1.31h-8.648v25.669c0 .842-.422 1.403-1.264 1.403h-1.215c-.842 0-1.311-.561-1.311-1.403zM467.162 62.573v12.858c0 .794-.467 1.355-1.262 1.355h-1.17c-.793 0-1.262-.562-1.262-1.355v-12.531c0-4.115-2.525-6.78-6.5-6.78-4.02 0-6.873 2.665-6.873 6.78v12.531c0 .794-.467 1.355-1.262 1.355h-1.17c-.793 0-1.262-.562-1.262-1.355v-30.391c0-.703.42-1.124 1.262-1.357l.982-.234c1.027-.279 1.449.281 1.449 1.264v11.407c1.684-2.058 4.256-3.273 7.527-3.273 5.895 0 9.541 4.021 9.541 9.726zM484.832 74.122c2.059 0 4.676-.562 7.201-2.666.844-.7 1.449-.607 2.012 0l.467.422c.701.747.375 1.402-.094 1.87-2.805 2.712-6.779 3.6-9.586 3.6-6.404 0-12.391-4.441-12.391-12.156 0-7.061 5.051-12.345 11.785-12.345 3.318 0 6.125 1.17 8.135 3.133 2.291 2.245 3.508 5.331 3.508 8.65 0 .888-.656 1.497-1.592 1.497h-18.047c.42 5.142 4.348 7.995 8.602 7.995zm-8.555-11.082h15.803c-.281-1.917-1.029-3.553-2.15-4.675-1.355-1.497-3.32-2.291-5.703-2.291-4.256 0-7.342 2.711-7.95 6.966zM510.92 73.606c-.467-.606-.748-1.308.094-1.963l.326-.326c.656-.562 1.264-.749 2.012.046 1.543 1.73 3.6 2.759 5.938 2.759 2.852 0 4.816-1.311 4.816-3.366 0-2.666-2.619-3.601-5.564-4.816-3.32-1.356-6.639-2.805-6.639-6.593 0-3.929 3.133-6.5 7.902-6.5 2.523 0 5.096.843 7.105 2.993.562.561.842 1.216.096 2.01l-.328.328c-.516.515-1.217.842-2.012.094-1.73-1.684-2.992-2.244-4.955-2.244-2.479 0-4.068 1.216-4.068 2.992 0 1.87 1.869 2.759 4.441 3.881 4.021 1.729 7.762 3.086 7.762 7.808 0 4.021-3.365 6.64-8.369 6.64-2.993-.001-6.454-1.262-8.557-3.743zM531.631 65.098c0-6.92 5.283-12.251 12.439-12.251 7.152 0 12.436 5.331 12.436 12.251s-5.283 12.25-12.436 12.25c-7.156 0-12.439-5.33-12.439-12.25zm21.135 0c0-5.144-3.6-8.931-8.695-8.931-5.051 0-8.699 3.787-8.699 8.931 0 5.143 3.602 8.931 8.699 8.931 5.095-.001 8.695-3.789 8.695-8.931zM560.385 65.098c0-6.92 5.236-12.251 12.438-12.251 2.852 0 6.172.655 9.07 3.508.469.468.795 1.168.094 1.87l-.514.514c-.609.516-1.215.749-2.012 0-2.713-2.432-4.91-2.571-6.592-2.571-5.143 0-8.744 3.787-8.744 8.978 0 5.05 3.414 8.884 8.744 8.884 1.682 0 3.879-.14 6.592-2.572.797-.748 1.402-.56 2.012 0l.514.515c.701.701.375 1.356-.094 1.87-2.898 2.853-6.219 3.507-9.07 3.507-7.202-.002-12.438-5.332-12.438-12.252zM586.475 45.974c0-1.589 1.309-2.898 2.898-2.898 1.588 0 2.898 1.31 2.898 2.898 0 1.638-1.311 2.898-2.898 2.898-1.59 0-2.898-1.261-2.898-2.898zm1.027 29.458v-20.902c0-.841.467-1.355 1.262-1.355h1.17c.795 0 1.262.515 1.262 1.355v20.901c0 .794-.467 1.355-1.262 1.355h-1.17c-.795.001-1.262-.56-1.262-1.354zM617.332 62.433v12.999c0 .888-.375 1.355-1.215 1.355h-.936c-.842 0-1.262-.562-1.262-1.355v-1.732c-1.965 2.293-4.91 3.647-8.043 3.647-5.424 0-9.07-3.038-9.07-7.621 0-4.676 3.973-7.808 9.912-7.808 2.76 0 5.096.747 7.061 1.683v-1.871c0-3.413-2.572-5.656-6.406-5.656-2.197 0-4.77.7-7.061 2.431-.748.562-1.309.28-1.777-.327l-.279-.374c-.609-.795-.281-1.59.373-2.058 3.273-2.291 5.939-2.899 8.932-2.899 6.171 0 9.771 3.415 9.771 9.586zm-3.506 5.843v-1.495c-1.496-.748-4.115-1.824-6.969-1.824-3.832 0-6.357 1.964-6.357 4.816 0 2.666 2.338 4.395 5.797 4.395 3.74 0 7.529-2.243 7.529-5.892zM624.436 75.432v-30.392c0-.703.422-1.124 1.264-1.357l.982-.234c1.027-.279 1.449.281 1.449 1.264v30.72c0 .794-.469 1.355-1.264 1.355h-1.168c-.795-.001-1.263-.562-1.263-1.356zM645.287 65.098c0-6.92 5.236-12.251 12.438-12.251 2.852 0 6.174.655 9.07 3.508.469.468.795 1.168.096 1.87l-.516.514c-.607.516-1.217.749-2.01 0-2.713-2.432-4.91-2.571-6.594-2.571-5.145 0-8.742 3.787-8.742 8.978 0 5.05 3.412 8.884 8.742 8.884 1.684 0 3.881-.14 6.594-2.572.793-.748 1.402-.56 2.01 0l.516.515c.699.701.373 1.356-.096 1.87-2.896 2.853-6.219 3.507-9.07 3.507-7.202-.002-12.438-5.332-12.438-12.252zM692.137 54.53v20.901c0 .794-.469 1.355-1.264 1.355h-.934c-.795 0-1.264-.562-1.264-1.355v-1.497c-1.59 2.104-4.066 3.413-7.434 3.413-5.564 0-9.258-3.88-9.258-9.678v-13.139c0-.841.467-1.355 1.262-1.355h1.215c.795 0 1.217.515 1.217 1.355v13.046c0 3.88 2.479 6.499 6.219 6.499 3.975 0 6.545-2.666 6.545-6.78v-12.765c0-.841.422-1.355 1.217-1.355h1.215c.795 0 1.264.514 1.264 1.355zM712.1 54.812l-.188.748c-.281.935-.982 1.028-1.684.841-.561-.187-1.074-.28-1.637-.28-3.459 0-5.516 3.086-5.516 7.294v12.018c0 .794-.422 1.355-1.264 1.355h-1.168c-.795 0-1.264-.562-1.264-1.355v-20.903c0-.841.469-1.355 1.264-1.355h.934c.795 0 1.264.515 1.264 1.355v1.964c1.262-2.244 3.271-3.647 6.078-3.647 1.074 0 1.59.095 2.385.281.655.186 1.122.561.796 1.684zM728.65 54.812l-.188.748c-.281.935-.982 1.028-1.684.841-.561-.187-1.076-.28-1.637-.28-3.459 0-5.518 3.086-5.518 7.294v12.018c0 .794-.42 1.355-1.262 1.355h-1.17c-.795 0-1.262-.562-1.262-1.355v-20.903c0-.841.467-1.355 1.262-1.355h.936c.795 0 1.262.515 1.262 1.355v1.964c1.264-2.244 3.273-3.647 6.08-3.647 1.074 0 1.588.095 2.385.281.654.186 1.123.561.796 1.684zM742.115 74.122c2.057 0 4.674-.562 7.199-2.666.842-.7 1.451-.607 2.012 0l.467.422c.701.747.373 1.402-.094 1.87-2.805 2.712-6.779 3.6-9.584 3.6-6.406 0-12.391-4.441-12.391-12.156 0-7.061 5.049-12.345 11.781-12.345 3.32 0 6.125 1.17 8.137 3.133 2.291 2.245 3.506 5.331 3.506 8.65 0 .888-.654 1.497-1.59 1.497h-18.048c.422 5.142 4.349 7.995 8.605 7.995zm-8.558-11.082h15.805c-.279-1.917-1.027-3.553-2.15-4.675-1.355-1.497-3.318-2.291-5.705-2.291-4.255 0-7.341 2.711-7.95 6.966zM779.283 62.573v12.858c0 .794-.42 1.355-1.264 1.355h-1.168c-.795 0-1.262-.562-1.262-1.355v-12.531c0-4.115-2.525-6.78-6.5-6.78-4.021 0-6.873 2.665-6.873 6.78v12.531c0 .794-.42 1.355-1.262 1.355h-1.17c-.795 0-1.262-.562-1.262-1.355v-20.901c0-.841.467-1.355 1.262-1.355h.936c.795 0 1.262.515 1.262 1.355v1.917c1.637-2.244 4.303-3.601 7.762-3.601 5.893.001 9.539 4.022 9.539 9.727zM784.564 65.098c0-6.92 5.238-12.251 12.438-12.251 2.854 0 6.172.655 9.07 3.508.469.468.797 1.168.094 1.87l-.514.514c-.607.516-1.215.749-2.01 0-2.713-2.432-4.91-2.571-6.594-2.571-5.143 0-8.744 3.787-8.744 8.978 0 5.05 3.414 8.884 8.744 8.884 1.684 0 3.881-.14 6.594-2.572.795-.748 1.402-.56 2.01 0l.514.515c.703.701.375 1.356-.094 1.87-2.898 2.853-6.217 3.507-9.07 3.507-7.199-.002-12.438-5.332-12.438-12.252zM830.713 54.484l-11.314 25.622c-1.824 4.115-3.367 5.563-6.594 5.563-1.262 0-2.432-.327-3.227-.794-.514-.327-1.076-.749-.748-1.637l.188-.421c.279-.795 1.027-1.074 2.01-.607.516.233 1.17.421 1.73.421 1.402 0 2.197-.515 3.227-2.899l1.871-4.254-9.119-20.994c-.279-.702.141-1.31.889-1.31h1.59c.842 0 1.262.467 1.59 1.31l7.061 16.784 7.061-16.784c.326-.843.748-1.31 1.59-1.31h1.355c.746.001 1.168.608.84 1.31zM831.273 74.449c0-1.59 1.309-2.898 2.898-2.898 1.588 0 2.898 1.309 2.898 2.898 0 1.589-1.311 2.898-2.898 2.898-1.589.001-2.898-1.309-2.898-2.898zM366.959 105.152c-1.615 0-2.922-1.308-2.922-2.922v-82.346c0-1.614 1.307-2.923 2.922-2.923 1.613 0 2.922 1.309 2.922 2.923v82.347c0 1.614-1.309 2.921-2.922 2.921z"/></svg>